<svg width="80" height="80" viewBox="0 0 80 80" fill="none" xmlns="http://www.w3.org/2000/svg">
<circle cx="40" cy="40" r="40" fill="#FFF700"/>
<g clip-path="url(#clip0)">
<path d="M60.4258 56.6166L52.2473 47.6946C51.8781 47.2919 51.3777 47.0682 50.8527 47.0682H49.5156C51.7797 43.9092 53.125 39.9359 53.125 35.6136C53.125 25.3314 45.4879 17 36.0625 17C26.6371 17 19 25.3314 19 35.6136C19 45.8959 26.6371 54.2273 36.0625 54.2273C40.0246 54.2273 43.6668 52.7597 46.5625 50.2898V51.7484C46.5625 52.3212 46.7676 52.867 47.1367 53.2697L55.3152 62.1918C56.0863 63.033 57.3332 63.033 58.0961 62.1918L60.4176 59.6592C61.1887 58.818 61.1887 57.4578 60.4258 56.6166ZM36.0625 47.0682C30.2629 47.0682 25.5625 41.9494 25.5625 35.6136C25.5625 29.2868 30.2547 24.1591 36.0625 24.1591C41.8621 24.1591 46.5625 29.2778 46.5625 35.6136C46.5625 41.9405 41.8703 47.0682 36.0625 47.0682Z" fill="white"/>
</g>
<defs>
<clipPath id="clip0">
<rect width="42" height="45.8182" fill="white" transform="translate(19 17)"/>
</clipPath>
</defs>
</svg>
